G04 EAGLE Gerber RS-274X export*
G75*
%MOMM*%
%FSLAX34Y34*%
%LPD*%
%INTop Copper*%
%IPPOS*%
%AMOC8*
5,1,8,0,0,1.08239X$1,22.5*%
G01*
%ADD10C,0.152400*%
%ADD11C,0.127000*%
%ADD12C,0.101600*%
%ADD13C,0.254000*%
%ADD14C,1.000000*%
%ADD15R,0.950000X0.850000*%
%ADD16R,1.150000X0.850000*%
%ADD17R,1.150000X0.970000*%
%ADD18R,0.950000X0.970000*%
%ADD19R,1.803000X1.600000*%
%ADD20R,1.800000X1.600000*%
%ADD21R,1.200000X1.200000*%
%ADD22R,1.600000X1.500000*%
%ADD23R,1.000000X1.400000*%
%ADD24R,1.500000X1.300000*%
%ADD25R,1.346200X0.381000*%
%ADD26R,1.900000X1.900000*%
%ADD27R,1.600000X1.803000*%


D10*
X165608Y361047D02*
X165608Y357434D01*
X165606Y357316D01*
X165600Y357198D01*
X165591Y357080D01*
X165577Y356963D01*
X165560Y356846D01*
X165539Y356729D01*
X165514Y356614D01*
X165485Y356499D01*
X165452Y356385D01*
X165416Y356273D01*
X165376Y356162D01*
X165333Y356052D01*
X165286Y355943D01*
X165236Y355836D01*
X165181Y355731D01*
X165124Y355628D01*
X165063Y355527D01*
X164999Y355427D01*
X164932Y355330D01*
X164862Y355235D01*
X164788Y355143D01*
X164712Y355052D01*
X164632Y354965D01*
X164550Y354880D01*
X164465Y354798D01*
X164378Y354718D01*
X164287Y354642D01*
X164195Y354568D01*
X164100Y354498D01*
X164003Y354431D01*
X163903Y354367D01*
X163802Y354306D01*
X163699Y354249D01*
X163594Y354194D01*
X163487Y354144D01*
X163378Y354097D01*
X163268Y354054D01*
X163157Y354014D01*
X163045Y353978D01*
X162931Y353945D01*
X162816Y353916D01*
X162701Y353891D01*
X162584Y353870D01*
X162467Y353853D01*
X162350Y353839D01*
X162232Y353830D01*
X162114Y353824D01*
X161996Y353822D01*
X152964Y353822D01*
X152846Y353824D01*
X152728Y353830D01*
X152610Y353839D01*
X152492Y353853D01*
X152375Y353870D01*
X152259Y353891D01*
X152144Y353916D01*
X152029Y353945D01*
X151915Y353978D01*
X151803Y354014D01*
X151691Y354054D01*
X151581Y354097D01*
X151473Y354144D01*
X151366Y354195D01*
X151261Y354249D01*
X151158Y354306D01*
X151056Y354367D01*
X150957Y354431D01*
X150860Y354498D01*
X150765Y354569D01*
X150672Y354642D01*
X150582Y354719D01*
X150494Y354798D01*
X150409Y354880D01*
X150327Y354965D01*
X150248Y355053D01*
X150171Y355143D01*
X150098Y355236D01*
X150027Y355330D01*
X149960Y355428D01*
X149896Y355527D01*
X149835Y355628D01*
X149778Y355732D01*
X149724Y355837D01*
X149673Y355944D01*
X149626Y356052D01*
X149583Y356162D01*
X149543Y356274D01*
X149507Y356386D01*
X149474Y356500D01*
X149445Y356615D01*
X149420Y356730D01*
X149399Y356846D01*
X149382Y356963D01*
X149368Y357081D01*
X149359Y357199D01*
X149353Y357317D01*
X149351Y357435D01*
X149352Y357434D02*
X149352Y361047D01*
X152964Y366888D02*
X149352Y371403D01*
X165608Y371403D01*
X165608Y366888D02*
X165608Y375919D01*
D11*
X241935Y513221D02*
X241935Y525145D01*
X241935Y513221D02*
X241937Y513086D01*
X241943Y512952D01*
X241953Y512818D01*
X241967Y512684D01*
X241984Y512550D01*
X242006Y512417D01*
X242032Y512285D01*
X242061Y512154D01*
X242094Y512023D01*
X242131Y511894D01*
X242172Y511765D01*
X242217Y511638D01*
X242265Y511513D01*
X242317Y511389D01*
X242373Y511266D01*
X242432Y511145D01*
X242494Y511026D01*
X242561Y510909D01*
X242630Y510793D01*
X242703Y510680D01*
X242779Y510569D01*
X242859Y510460D01*
X242942Y510354D01*
X243027Y510250D01*
X243116Y510149D01*
X243208Y510050D01*
X243302Y509954D01*
X243399Y509861D01*
X243499Y509771D01*
X243602Y509684D01*
X243707Y509600D01*
X243815Y509519D01*
X243924Y509441D01*
X244036Y509366D01*
X244151Y509295D01*
X244267Y509227D01*
X244385Y509163D01*
X244505Y509102D01*
X244627Y509044D01*
X244750Y508991D01*
X244875Y508940D01*
X245002Y508894D01*
X245129Y508851D01*
X245258Y508812D01*
X245388Y508777D01*
X245519Y508746D01*
X245651Y508718D01*
X245784Y508695D01*
X245917Y508675D01*
X246051Y508659D01*
X246185Y508647D01*
X246319Y508639D01*
X246454Y508635D01*
X246588Y508635D01*
X246723Y508639D01*
X246857Y508647D01*
X246991Y508659D01*
X247125Y508675D01*
X247258Y508695D01*
X247391Y508718D01*
X247523Y508746D01*
X247654Y508777D01*
X247784Y508812D01*
X247913Y508851D01*
X248040Y508894D01*
X248167Y508940D01*
X248292Y508991D01*
X248415Y509044D01*
X248537Y509102D01*
X248657Y509163D01*
X248775Y509227D01*
X248891Y509295D01*
X249006Y509366D01*
X249118Y509441D01*
X249227Y509519D01*
X249335Y509600D01*
X249440Y509684D01*
X249543Y509771D01*
X249643Y509861D01*
X249740Y509954D01*
X249834Y510050D01*
X249926Y510149D01*
X250015Y510250D01*
X250100Y510354D01*
X250183Y510460D01*
X250263Y510569D01*
X250339Y510680D01*
X250412Y510793D01*
X250481Y510909D01*
X250548Y511026D01*
X250610Y511145D01*
X250669Y511266D01*
X250725Y511389D01*
X250777Y511513D01*
X250825Y511638D01*
X250870Y511765D01*
X250911Y511894D01*
X250948Y512023D01*
X250981Y512154D01*
X251010Y512285D01*
X251036Y512417D01*
X251058Y512550D01*
X251075Y512684D01*
X251089Y512818D01*
X251099Y512952D01*
X251105Y513086D01*
X251107Y513221D01*
X251107Y525145D01*
X258087Y521476D02*
X262673Y525145D01*
X262673Y508635D01*
X258087Y508635D02*
X267260Y508635D01*
X313055Y356235D02*
X329565Y356235D01*
X313055Y356235D02*
X313055Y360821D01*
X313057Y360956D01*
X313063Y361090D01*
X313073Y361224D01*
X313087Y361358D01*
X313104Y361492D01*
X313126Y361625D01*
X313152Y361757D01*
X313181Y361888D01*
X313214Y362019D01*
X313251Y362148D01*
X313292Y362277D01*
X313337Y362404D01*
X313385Y362529D01*
X313437Y362653D01*
X313493Y362776D01*
X313552Y362897D01*
X313614Y363016D01*
X313681Y363133D01*
X313750Y363249D01*
X313823Y363362D01*
X313899Y363473D01*
X313979Y363582D01*
X314062Y363688D01*
X314147Y363792D01*
X314236Y363893D01*
X314328Y363992D01*
X314422Y364088D01*
X314519Y364181D01*
X314619Y364271D01*
X314722Y364358D01*
X314827Y364442D01*
X314935Y364523D01*
X315044Y364601D01*
X315156Y364676D01*
X315271Y364747D01*
X315387Y364815D01*
X315505Y364879D01*
X315625Y364940D01*
X315747Y364998D01*
X315870Y365051D01*
X315995Y365102D01*
X316122Y365148D01*
X316249Y365191D01*
X316378Y365230D01*
X316508Y365265D01*
X316639Y365296D01*
X316771Y365324D01*
X316904Y365347D01*
X317037Y365367D01*
X317171Y365383D01*
X317305Y365395D01*
X317439Y365403D01*
X317574Y365407D01*
X317708Y365407D01*
X317843Y365403D01*
X317977Y365395D01*
X318111Y365383D01*
X318245Y365367D01*
X318378Y365347D01*
X318511Y365324D01*
X318643Y365296D01*
X318774Y365265D01*
X318904Y365230D01*
X319033Y365191D01*
X319160Y365148D01*
X319287Y365102D01*
X319412Y365051D01*
X319535Y364998D01*
X319657Y364940D01*
X319777Y364879D01*
X319895Y364815D01*
X320011Y364747D01*
X320126Y364676D01*
X320238Y364601D01*
X320347Y364523D01*
X320455Y364442D01*
X320560Y364358D01*
X320663Y364271D01*
X320763Y364181D01*
X320860Y364088D01*
X320954Y363992D01*
X321046Y363893D01*
X321135Y363792D01*
X321220Y363688D01*
X321303Y363582D01*
X321383Y363473D01*
X321459Y363362D01*
X321532Y363249D01*
X321601Y363133D01*
X321668Y363016D01*
X321730Y362897D01*
X321789Y362776D01*
X321845Y362653D01*
X321897Y362529D01*
X321945Y362404D01*
X321990Y362277D01*
X322031Y362148D01*
X322068Y362019D01*
X322101Y361888D01*
X322130Y361757D01*
X322156Y361625D01*
X322178Y361492D01*
X322195Y361358D01*
X322209Y361224D01*
X322219Y361090D01*
X322225Y360956D01*
X322227Y360821D01*
X322227Y356235D01*
X322227Y361738D02*
X329565Y365407D01*
X316724Y371784D02*
X313055Y376370D01*
X329565Y376370D01*
X329565Y371784D02*
X329565Y380956D01*
X370205Y341771D02*
X386715Y341771D01*
X370205Y337185D02*
X370205Y346357D01*
X370205Y352485D02*
X386715Y352485D01*
X370205Y352485D02*
X370205Y357071D01*
X370207Y357206D01*
X370213Y357340D01*
X370223Y357474D01*
X370237Y357608D01*
X370254Y357742D01*
X370276Y357875D01*
X370302Y358007D01*
X370331Y358138D01*
X370364Y358269D01*
X370401Y358398D01*
X370442Y358527D01*
X370487Y358654D01*
X370535Y358779D01*
X370587Y358903D01*
X370643Y359026D01*
X370702Y359147D01*
X370764Y359266D01*
X370831Y359383D01*
X370900Y359499D01*
X370973Y359612D01*
X371049Y359723D01*
X371129Y359832D01*
X371212Y359938D01*
X371297Y360042D01*
X371386Y360143D01*
X371478Y360242D01*
X371572Y360338D01*
X371669Y360431D01*
X371769Y360521D01*
X371872Y360608D01*
X371977Y360692D01*
X372085Y360773D01*
X372194Y360851D01*
X372306Y360926D01*
X372421Y360997D01*
X372537Y361065D01*
X372655Y361129D01*
X372775Y361190D01*
X372897Y361248D01*
X373020Y361301D01*
X373145Y361352D01*
X373272Y361398D01*
X373399Y361441D01*
X373528Y361480D01*
X373658Y361515D01*
X373789Y361546D01*
X373921Y361574D01*
X374054Y361597D01*
X374187Y361617D01*
X374321Y361633D01*
X374455Y361645D01*
X374589Y361653D01*
X374724Y361657D01*
X374858Y361657D01*
X374993Y361653D01*
X375127Y361645D01*
X375261Y361633D01*
X375395Y361617D01*
X375528Y361597D01*
X375661Y361574D01*
X375793Y361546D01*
X375924Y361515D01*
X376054Y361480D01*
X376183Y361441D01*
X376310Y361398D01*
X376437Y361352D01*
X376562Y361301D01*
X376685Y361248D01*
X376807Y361190D01*
X376927Y361129D01*
X377045Y361065D01*
X377161Y360997D01*
X377276Y360926D01*
X377388Y360851D01*
X377497Y360773D01*
X377605Y360692D01*
X377710Y360608D01*
X377813Y360521D01*
X377913Y360431D01*
X378010Y360338D01*
X378104Y360242D01*
X378196Y360143D01*
X378285Y360042D01*
X378370Y359938D01*
X378453Y359832D01*
X378533Y359723D01*
X378609Y359612D01*
X378682Y359499D01*
X378751Y359383D01*
X378818Y359266D01*
X378880Y359147D01*
X378939Y359026D01*
X378995Y358903D01*
X379047Y358779D01*
X379095Y358654D01*
X379140Y358527D01*
X379181Y358398D01*
X379218Y358269D01*
X379251Y358138D01*
X379280Y358007D01*
X379306Y357875D01*
X379328Y357742D01*
X379345Y357608D01*
X379359Y357474D01*
X379369Y357340D01*
X379375Y357206D01*
X379377Y357071D01*
X379377Y352485D01*
X373874Y367405D02*
X370205Y371992D01*
X386715Y371992D01*
X386715Y376578D02*
X386715Y367405D01*
X573405Y405271D02*
X589915Y405271D01*
X573405Y400685D02*
X573405Y409857D01*
X573405Y415985D02*
X589915Y415985D01*
X573405Y415985D02*
X573405Y420571D01*
X573407Y420706D01*
X573413Y420840D01*
X573423Y420974D01*
X573437Y421108D01*
X573454Y421242D01*
X573476Y421375D01*
X573502Y421507D01*
X573531Y421638D01*
X573564Y421769D01*
X573601Y421898D01*
X573642Y422027D01*
X573687Y422154D01*
X573735Y422279D01*
X573787Y422403D01*
X573843Y422526D01*
X573902Y422647D01*
X573964Y422766D01*
X574031Y422883D01*
X574100Y422999D01*
X574173Y423112D01*
X574249Y423223D01*
X574329Y423332D01*
X574412Y423438D01*
X574497Y423542D01*
X574586Y423643D01*
X574678Y423742D01*
X574772Y423838D01*
X574869Y423931D01*
X574969Y424021D01*
X575072Y424108D01*
X575177Y424192D01*
X575285Y424273D01*
X575394Y424351D01*
X575506Y424426D01*
X575621Y424497D01*
X575737Y424565D01*
X575855Y424629D01*
X575975Y424690D01*
X576097Y424748D01*
X576220Y424801D01*
X576345Y424852D01*
X576472Y424898D01*
X576599Y424941D01*
X576728Y424980D01*
X576858Y425015D01*
X576989Y425046D01*
X577121Y425074D01*
X577254Y425097D01*
X577387Y425117D01*
X577521Y425133D01*
X577655Y425145D01*
X577789Y425153D01*
X577924Y425157D01*
X578058Y425157D01*
X578193Y425153D01*
X578327Y425145D01*
X578461Y425133D01*
X578595Y425117D01*
X578728Y425097D01*
X578861Y425074D01*
X578993Y425046D01*
X579124Y425015D01*
X579254Y424980D01*
X579383Y424941D01*
X579510Y424898D01*
X579637Y424852D01*
X579762Y424801D01*
X579885Y424748D01*
X580007Y424690D01*
X580127Y424629D01*
X580245Y424565D01*
X580361Y424497D01*
X580476Y424426D01*
X580588Y424351D01*
X580697Y424273D01*
X580805Y424192D01*
X580910Y424108D01*
X581013Y424021D01*
X581113Y423931D01*
X581210Y423838D01*
X581304Y423742D01*
X581396Y423643D01*
X581485Y423542D01*
X581570Y423438D01*
X581653Y423332D01*
X581733Y423223D01*
X581809Y423112D01*
X581882Y422999D01*
X581951Y422883D01*
X582018Y422766D01*
X582080Y422647D01*
X582139Y422526D01*
X582195Y422403D01*
X582247Y422279D01*
X582295Y422154D01*
X582340Y422027D01*
X582381Y421898D01*
X582418Y421769D01*
X582451Y421638D01*
X582480Y421507D01*
X582506Y421375D01*
X582528Y421242D01*
X582545Y421108D01*
X582559Y420974D01*
X582569Y420840D01*
X582575Y420706D01*
X582577Y420571D01*
X582577Y415985D01*
X589915Y430905D02*
X589915Y435492D01*
X589913Y435627D01*
X589907Y435761D01*
X589897Y435895D01*
X589883Y436029D01*
X589866Y436163D01*
X589844Y436296D01*
X589818Y436428D01*
X589789Y436559D01*
X589756Y436690D01*
X589719Y436819D01*
X589678Y436948D01*
X589633Y437075D01*
X589585Y437200D01*
X589533Y437324D01*
X589477Y437447D01*
X589418Y437568D01*
X589356Y437687D01*
X589289Y437804D01*
X589220Y437920D01*
X589147Y438033D01*
X589071Y438144D01*
X588991Y438253D01*
X588908Y438359D01*
X588823Y438463D01*
X588734Y438564D01*
X588642Y438663D01*
X588548Y438759D01*
X588451Y438852D01*
X588351Y438942D01*
X588248Y439029D01*
X588143Y439113D01*
X588035Y439194D01*
X587926Y439272D01*
X587814Y439347D01*
X587699Y439418D01*
X587583Y439486D01*
X587465Y439550D01*
X587345Y439611D01*
X587223Y439669D01*
X587100Y439722D01*
X586975Y439773D01*
X586848Y439819D01*
X586721Y439862D01*
X586592Y439901D01*
X586462Y439936D01*
X586331Y439967D01*
X586199Y439995D01*
X586066Y440018D01*
X585933Y440038D01*
X585799Y440054D01*
X585665Y440066D01*
X585531Y440074D01*
X585396Y440078D01*
X585262Y440078D01*
X585127Y440074D01*
X584993Y440066D01*
X584859Y440054D01*
X584725Y440038D01*
X584592Y440018D01*
X584459Y439995D01*
X584327Y439967D01*
X584196Y439936D01*
X584066Y439901D01*
X583937Y439862D01*
X583810Y439819D01*
X583683Y439773D01*
X583558Y439722D01*
X583435Y439669D01*
X583313Y439611D01*
X583193Y439550D01*
X583075Y439486D01*
X582959Y439418D01*
X582844Y439347D01*
X582732Y439272D01*
X582623Y439194D01*
X582515Y439113D01*
X582410Y439029D01*
X582307Y438942D01*
X582207Y438852D01*
X582110Y438759D01*
X582016Y438663D01*
X581924Y438564D01*
X581835Y438463D01*
X581750Y438359D01*
X581667Y438253D01*
X581587Y438144D01*
X581511Y438033D01*
X581438Y437920D01*
X581369Y437804D01*
X581302Y437687D01*
X581240Y437568D01*
X581181Y437447D01*
X581125Y437324D01*
X581073Y437200D01*
X581025Y437075D01*
X580980Y436948D01*
X580939Y436819D01*
X580902Y436690D01*
X580869Y436559D01*
X580840Y436428D01*
X580814Y436296D01*
X580792Y436163D01*
X580775Y436029D01*
X580761Y435895D01*
X580751Y435761D01*
X580745Y435627D01*
X580743Y435492D01*
X573405Y436409D02*
X573405Y430905D01*
X573405Y436409D02*
X573407Y436529D01*
X573413Y436649D01*
X573423Y436769D01*
X573436Y436888D01*
X573454Y437007D01*
X573475Y437125D01*
X573501Y437242D01*
X573530Y437359D01*
X573563Y437474D01*
X573600Y437588D01*
X573640Y437701D01*
X573684Y437813D01*
X573732Y437923D01*
X573783Y438032D01*
X573838Y438139D01*
X573897Y438244D01*
X573958Y438346D01*
X574023Y438447D01*
X574092Y438546D01*
X574163Y438643D01*
X574238Y438737D01*
X574315Y438828D01*
X574396Y438917D01*
X574480Y439003D01*
X574566Y439087D01*
X574655Y439168D01*
X574746Y439245D01*
X574840Y439320D01*
X574937Y439391D01*
X575036Y439460D01*
X575137Y439525D01*
X575240Y439586D01*
X575344Y439645D01*
X575451Y439700D01*
X575560Y439751D01*
X575670Y439799D01*
X575782Y439843D01*
X575895Y439883D01*
X576009Y439920D01*
X576124Y439953D01*
X576241Y439982D01*
X576358Y440008D01*
X576476Y440029D01*
X576595Y440047D01*
X576714Y440060D01*
X576834Y440070D01*
X576954Y440076D01*
X577074Y440078D01*
X577194Y440076D01*
X577314Y440070D01*
X577434Y440060D01*
X577553Y440047D01*
X577672Y440029D01*
X577790Y440008D01*
X577907Y439982D01*
X578024Y439953D01*
X578139Y439920D01*
X578253Y439883D01*
X578366Y439843D01*
X578478Y439799D01*
X578588Y439751D01*
X578697Y439700D01*
X578804Y439645D01*
X578909Y439586D01*
X579011Y439525D01*
X579112Y439460D01*
X579211Y439391D01*
X579308Y439320D01*
X579402Y439245D01*
X579493Y439168D01*
X579582Y439087D01*
X579668Y439003D01*
X579752Y438917D01*
X579833Y438828D01*
X579910Y438737D01*
X579985Y438643D01*
X580056Y438546D01*
X580125Y438447D01*
X580190Y438346D01*
X580251Y438244D01*
X580310Y438139D01*
X580365Y438032D01*
X580416Y437923D01*
X580464Y437813D01*
X580508Y437701D01*
X580548Y437588D01*
X580585Y437474D01*
X580618Y437359D01*
X580647Y437242D01*
X580673Y437125D01*
X580694Y437007D01*
X580712Y436888D01*
X580725Y436769D01*
X580735Y436649D01*
X580741Y436529D01*
X580743Y436409D01*
X580743Y432740D01*
X573405Y324485D02*
X589915Y324485D01*
X573405Y324485D02*
X573405Y329071D01*
X573407Y329206D01*
X573413Y329340D01*
X573423Y329474D01*
X573437Y329608D01*
X573454Y329742D01*
X573476Y329875D01*
X573502Y330007D01*
X573531Y330138D01*
X573564Y330269D01*
X573601Y330398D01*
X573642Y330527D01*
X573687Y330654D01*
X573735Y330779D01*
X573787Y330903D01*
X573843Y331026D01*
X573902Y331147D01*
X573964Y331266D01*
X574031Y331383D01*
X574100Y331499D01*
X574173Y331612D01*
X574249Y331723D01*
X574329Y331832D01*
X574412Y331938D01*
X574497Y332042D01*
X574586Y332143D01*
X574678Y332242D01*
X574772Y332338D01*
X574869Y332431D01*
X574969Y332521D01*
X575072Y332608D01*
X575177Y332692D01*
X575285Y332773D01*
X575394Y332851D01*
X575506Y332926D01*
X575621Y332997D01*
X575737Y333065D01*
X575855Y333129D01*
X575975Y333190D01*
X576097Y333248D01*
X576220Y333301D01*
X576345Y333352D01*
X576472Y333398D01*
X576599Y333441D01*
X576728Y333480D01*
X576858Y333515D01*
X576989Y333546D01*
X577121Y333574D01*
X577254Y333597D01*
X577387Y333617D01*
X577521Y333633D01*
X577655Y333645D01*
X577789Y333653D01*
X577924Y333657D01*
X578058Y333657D01*
X578193Y333653D01*
X578327Y333645D01*
X578461Y333633D01*
X578595Y333617D01*
X578728Y333597D01*
X578861Y333574D01*
X578993Y333546D01*
X579124Y333515D01*
X579254Y333480D01*
X579383Y333441D01*
X579510Y333398D01*
X579637Y333352D01*
X579762Y333301D01*
X579885Y333248D01*
X580007Y333190D01*
X580127Y333129D01*
X580245Y333065D01*
X580361Y332997D01*
X580476Y332926D01*
X580588Y332851D01*
X580697Y332773D01*
X580805Y332692D01*
X580910Y332608D01*
X581013Y332521D01*
X581113Y332431D01*
X581210Y332338D01*
X581304Y332242D01*
X581396Y332143D01*
X581485Y332042D01*
X581570Y331938D01*
X581653Y331832D01*
X581733Y331723D01*
X581809Y331612D01*
X581882Y331499D01*
X581951Y331383D01*
X582018Y331266D01*
X582080Y331147D01*
X582139Y331026D01*
X582195Y330903D01*
X582247Y330779D01*
X582295Y330654D01*
X582340Y330527D01*
X582381Y330398D01*
X582418Y330269D01*
X582451Y330138D01*
X582480Y330007D01*
X582506Y329875D01*
X582528Y329742D01*
X582545Y329608D01*
X582559Y329474D01*
X582569Y329340D01*
X582575Y329206D01*
X582577Y329071D01*
X582577Y324485D01*
X582577Y329988D02*
X589915Y333657D01*
X589915Y340034D02*
X589915Y344620D01*
X589913Y344755D01*
X589907Y344889D01*
X589897Y345023D01*
X589883Y345157D01*
X589866Y345291D01*
X589844Y345424D01*
X589818Y345556D01*
X589789Y345687D01*
X589756Y345818D01*
X589719Y345947D01*
X589678Y346076D01*
X589633Y346203D01*
X589585Y346328D01*
X589533Y346452D01*
X589477Y346575D01*
X589418Y346696D01*
X589356Y346815D01*
X589289Y346932D01*
X589220Y347048D01*
X589147Y347161D01*
X589071Y347272D01*
X588991Y347381D01*
X588908Y347487D01*
X588823Y347591D01*
X588734Y347692D01*
X588642Y347791D01*
X588548Y347887D01*
X588451Y347980D01*
X588351Y348070D01*
X588248Y348157D01*
X588143Y348241D01*
X588035Y348322D01*
X587926Y348400D01*
X587814Y348475D01*
X587699Y348546D01*
X587583Y348614D01*
X587465Y348678D01*
X587345Y348739D01*
X587223Y348797D01*
X587100Y348850D01*
X586975Y348901D01*
X586848Y348947D01*
X586721Y348990D01*
X586592Y349029D01*
X586462Y349064D01*
X586331Y349095D01*
X586199Y349123D01*
X586066Y349146D01*
X585933Y349166D01*
X585799Y349182D01*
X585665Y349194D01*
X585531Y349202D01*
X585396Y349206D01*
X585262Y349206D01*
X585127Y349202D01*
X584993Y349194D01*
X584859Y349182D01*
X584725Y349166D01*
X584592Y349146D01*
X584459Y349123D01*
X584327Y349095D01*
X584196Y349064D01*
X584066Y349029D01*
X583937Y348990D01*
X583810Y348947D01*
X583683Y348901D01*
X583558Y348850D01*
X583435Y348797D01*
X583313Y348739D01*
X583193Y348678D01*
X583075Y348614D01*
X582959Y348546D01*
X582844Y348475D01*
X582732Y348400D01*
X582623Y348322D01*
X582515Y348241D01*
X582410Y348157D01*
X582307Y348070D01*
X582207Y347980D01*
X582110Y347887D01*
X582016Y347791D01*
X581924Y347692D01*
X581835Y347591D01*
X581750Y347487D01*
X581667Y347381D01*
X581587Y347272D01*
X581511Y347161D01*
X581438Y347048D01*
X581369Y346932D01*
X581302Y346815D01*
X581240Y346696D01*
X581181Y346575D01*
X581125Y346452D01*
X581073Y346328D01*
X581025Y346203D01*
X580980Y346076D01*
X580939Y345947D01*
X580902Y345818D01*
X580869Y345687D01*
X580840Y345556D01*
X580814Y345424D01*
X580792Y345291D01*
X580775Y345157D01*
X580761Y345023D01*
X580751Y344889D01*
X580745Y344755D01*
X580743Y344620D01*
X573405Y345537D02*
X573405Y340034D01*
X573405Y345537D02*
X573407Y345657D01*
X573413Y345777D01*
X573423Y345897D01*
X573436Y346016D01*
X573454Y346135D01*
X573475Y346253D01*
X573501Y346370D01*
X573530Y346487D01*
X573563Y346602D01*
X573600Y346716D01*
X573640Y346829D01*
X573684Y346941D01*
X573732Y347051D01*
X573783Y347160D01*
X573838Y347267D01*
X573897Y347372D01*
X573958Y347474D01*
X574023Y347575D01*
X574092Y347674D01*
X574163Y347771D01*
X574238Y347865D01*
X574315Y347956D01*
X574396Y348045D01*
X574480Y348131D01*
X574566Y348215D01*
X574655Y348296D01*
X574746Y348373D01*
X574840Y348448D01*
X574937Y348519D01*
X575036Y348588D01*
X575137Y348653D01*
X575240Y348714D01*
X575344Y348773D01*
X575451Y348828D01*
X575560Y348879D01*
X575670Y348927D01*
X575782Y348971D01*
X575895Y349011D01*
X576009Y349048D01*
X576124Y349081D01*
X576241Y349110D01*
X576358Y349136D01*
X576476Y349157D01*
X576595Y349175D01*
X576714Y349188D01*
X576834Y349198D01*
X576954Y349204D01*
X577074Y349206D01*
X577194Y349204D01*
X577314Y349198D01*
X577434Y349188D01*
X577553Y349175D01*
X577672Y349157D01*
X577790Y349136D01*
X577907Y349110D01*
X578024Y349081D01*
X578139Y349048D01*
X578253Y349011D01*
X578366Y348971D01*
X578478Y348927D01*
X578588Y348879D01*
X578697Y348828D01*
X578804Y348773D01*
X578909Y348714D01*
X579011Y348653D01*
X579112Y348588D01*
X579211Y348519D01*
X579308Y348448D01*
X579402Y348373D01*
X579493Y348296D01*
X579582Y348215D01*
X579668Y348131D01*
X579752Y348045D01*
X579833Y347956D01*
X579910Y347865D01*
X579985Y347771D01*
X580056Y347674D01*
X580125Y347575D01*
X580190Y347474D01*
X580251Y347372D01*
X580310Y347267D01*
X580365Y347160D01*
X580416Y347051D01*
X580464Y346941D01*
X580508Y346829D01*
X580548Y346716D01*
X580585Y346602D01*
X580618Y346487D01*
X580647Y346370D01*
X580673Y346253D01*
X580694Y346135D01*
X580712Y346016D01*
X580725Y345897D01*
X580735Y345777D01*
X580741Y345657D01*
X580743Y345537D01*
X580743Y341868D01*
D12*
X501142Y210058D02*
X489458Y210058D01*
X489458Y216549D02*
X496598Y210058D01*
X494002Y212654D02*
X501142Y216549D01*
X496598Y221051D02*
X493353Y228840D01*
X499844Y228840D02*
X496598Y221051D01*
X496598Y234005D02*
X496598Y241794D01*
X501142Y247249D02*
X489458Y247249D01*
X501142Y247249D02*
X501142Y252442D01*
X501142Y257155D02*
X501142Y262348D01*
X501142Y257155D02*
X489458Y257155D01*
X489458Y262348D01*
X494651Y261050D02*
X494651Y257155D01*
X489458Y267039D02*
X501142Y267039D01*
X489458Y267039D02*
X489458Y270284D01*
X489460Y270397D01*
X489466Y270510D01*
X489476Y270623D01*
X489490Y270736D01*
X489507Y270848D01*
X489529Y270959D01*
X489554Y271069D01*
X489584Y271179D01*
X489617Y271287D01*
X489654Y271394D01*
X489694Y271500D01*
X489739Y271604D01*
X489787Y271707D01*
X489838Y271808D01*
X489893Y271907D01*
X489951Y272004D01*
X490013Y272099D01*
X490078Y272192D01*
X490146Y272282D01*
X490217Y272370D01*
X490292Y272456D01*
X490369Y272539D01*
X490449Y272619D01*
X490532Y272696D01*
X490618Y272771D01*
X490706Y272842D01*
X490796Y272910D01*
X490889Y272975D01*
X490984Y273037D01*
X491081Y273095D01*
X491180Y273150D01*
X491281Y273201D01*
X491384Y273249D01*
X491488Y273294D01*
X491594Y273334D01*
X491701Y273371D01*
X491809Y273404D01*
X491919Y273434D01*
X492029Y273459D01*
X492140Y273481D01*
X492252Y273498D01*
X492365Y273512D01*
X492478Y273522D01*
X492591Y273528D01*
X492704Y273530D01*
X497896Y273530D01*
X498009Y273528D01*
X498122Y273522D01*
X498235Y273512D01*
X498348Y273498D01*
X498460Y273481D01*
X498571Y273459D01*
X498681Y273434D01*
X498791Y273404D01*
X498899Y273371D01*
X499006Y273334D01*
X499112Y273294D01*
X499216Y273249D01*
X499319Y273201D01*
X499420Y273150D01*
X499519Y273095D01*
X499616Y273037D01*
X499711Y272975D01*
X499804Y272910D01*
X499894Y272842D01*
X499982Y272771D01*
X500068Y272696D01*
X500151Y272619D01*
X500231Y272539D01*
X500308Y272456D01*
X500383Y272370D01*
X500454Y272282D01*
X500522Y272192D01*
X500587Y272099D01*
X500649Y272004D01*
X500707Y271907D01*
X500762Y271808D01*
X500813Y271707D01*
X500861Y271604D01*
X500906Y271500D01*
X500946Y271394D01*
X500983Y271287D01*
X501016Y271179D01*
X501046Y271069D01*
X501071Y270959D01*
X501093Y270848D01*
X501110Y270736D01*
X501124Y270623D01*
X501134Y270510D01*
X501140Y270397D01*
X501142Y270284D01*
X501142Y267039D01*
X492054Y278850D02*
X489458Y282095D01*
X501142Y282095D01*
X501142Y278850D02*
X501142Y285341D01*
D11*
X617855Y271921D02*
X634365Y271921D01*
X617855Y267335D02*
X617855Y276507D01*
X617855Y282635D02*
X634365Y282635D01*
X617855Y282635D02*
X617855Y287221D01*
X617857Y287356D01*
X617863Y287490D01*
X617873Y287624D01*
X617887Y287758D01*
X617904Y287892D01*
X617926Y288025D01*
X617952Y288157D01*
X617981Y288288D01*
X618014Y288419D01*
X618051Y288548D01*
X618092Y288677D01*
X618137Y288804D01*
X618185Y288929D01*
X618237Y289053D01*
X618293Y289176D01*
X618352Y289297D01*
X618414Y289416D01*
X618481Y289533D01*
X618550Y289649D01*
X618623Y289762D01*
X618699Y289873D01*
X618779Y289982D01*
X618862Y290088D01*
X618947Y290192D01*
X619036Y290293D01*
X619128Y290392D01*
X619222Y290488D01*
X619319Y290581D01*
X619419Y290671D01*
X619522Y290758D01*
X619627Y290842D01*
X619735Y290923D01*
X619844Y291001D01*
X619956Y291076D01*
X620071Y291147D01*
X620187Y291215D01*
X620305Y291279D01*
X620425Y291340D01*
X620547Y291398D01*
X620670Y291451D01*
X620795Y291502D01*
X620922Y291548D01*
X621049Y291591D01*
X621178Y291630D01*
X621308Y291665D01*
X621439Y291696D01*
X621571Y291724D01*
X621704Y291747D01*
X621837Y291767D01*
X621971Y291783D01*
X622105Y291795D01*
X622239Y291803D01*
X622374Y291807D01*
X622508Y291807D01*
X622643Y291803D01*
X622777Y291795D01*
X622911Y291783D01*
X623045Y291767D01*
X623178Y291747D01*
X623311Y291724D01*
X623443Y291696D01*
X623574Y291665D01*
X623704Y291630D01*
X623833Y291591D01*
X623960Y291548D01*
X624087Y291502D01*
X624212Y291451D01*
X624335Y291398D01*
X624457Y291340D01*
X624577Y291279D01*
X624695Y291215D01*
X624811Y291147D01*
X624926Y291076D01*
X625038Y291001D01*
X625147Y290923D01*
X625255Y290842D01*
X625360Y290758D01*
X625463Y290671D01*
X625563Y290581D01*
X625660Y290488D01*
X625754Y290392D01*
X625846Y290293D01*
X625935Y290192D01*
X626020Y290088D01*
X626103Y289982D01*
X626183Y289873D01*
X626259Y289762D01*
X626332Y289649D01*
X626401Y289533D01*
X626468Y289416D01*
X626530Y289297D01*
X626589Y289176D01*
X626645Y289053D01*
X626697Y288929D01*
X626745Y288804D01*
X626790Y288677D01*
X626831Y288548D01*
X626868Y288419D01*
X626901Y288288D01*
X626930Y288157D01*
X626956Y288025D01*
X626978Y287892D01*
X626995Y287758D01*
X627009Y287624D01*
X627019Y287490D01*
X627025Y287356D01*
X627027Y287221D01*
X627027Y282635D01*
X617855Y302600D02*
X617857Y302727D01*
X617863Y302854D01*
X617873Y302981D01*
X617886Y303107D01*
X617904Y303233D01*
X617925Y303359D01*
X617951Y303483D01*
X617980Y303607D01*
X618013Y303730D01*
X618049Y303851D01*
X618090Y303972D01*
X618134Y304091D01*
X618182Y304209D01*
X618233Y304325D01*
X618288Y304440D01*
X618346Y304553D01*
X618408Y304664D01*
X618473Y304773D01*
X618542Y304880D01*
X618614Y304985D01*
X618689Y305088D01*
X618767Y305188D01*
X618848Y305286D01*
X618932Y305381D01*
X619019Y305474D01*
X619109Y305564D01*
X619202Y305651D01*
X619297Y305735D01*
X619395Y305816D01*
X619495Y305894D01*
X619598Y305969D01*
X619703Y306041D01*
X619810Y306110D01*
X619919Y306175D01*
X620030Y306237D01*
X620143Y306295D01*
X620258Y306350D01*
X620374Y306401D01*
X620492Y306449D01*
X620611Y306493D01*
X620732Y306534D01*
X620853Y306570D01*
X620976Y306603D01*
X621100Y306632D01*
X621224Y306658D01*
X621350Y306679D01*
X621476Y306697D01*
X621602Y306710D01*
X621729Y306720D01*
X621856Y306726D01*
X621983Y306728D01*
X617855Y302600D02*
X617857Y302455D01*
X617863Y302310D01*
X617873Y302166D01*
X617887Y302021D01*
X617904Y301877D01*
X617926Y301734D01*
X617952Y301591D01*
X617981Y301449D01*
X618015Y301308D01*
X618052Y301168D01*
X618093Y301029D01*
X618138Y300891D01*
X618186Y300755D01*
X618239Y300619D01*
X618295Y300486D01*
X618354Y300354D01*
X618418Y300223D01*
X618484Y300094D01*
X618554Y299968D01*
X618628Y299843D01*
X618705Y299720D01*
X618786Y299599D01*
X618869Y299481D01*
X618956Y299365D01*
X619046Y299251D01*
X619139Y299140D01*
X619235Y299031D01*
X619334Y298926D01*
X619436Y298822D01*
X619541Y298722D01*
X619648Y298625D01*
X619758Y298530D01*
X619871Y298439D01*
X619986Y298351D01*
X620103Y298265D01*
X620223Y298183D01*
X620344Y298105D01*
X620468Y298030D01*
X620594Y297958D01*
X620722Y297890D01*
X620852Y297825D01*
X620983Y297763D01*
X621116Y297706D01*
X621251Y297652D01*
X621387Y297602D01*
X621524Y297555D01*
X625193Y305351D02*
X625103Y305443D01*
X625011Y305532D01*
X624916Y305618D01*
X624819Y305701D01*
X624719Y305782D01*
X624617Y305860D01*
X624513Y305934D01*
X624407Y306006D01*
X624298Y306074D01*
X624188Y306140D01*
X624076Y306202D01*
X623962Y306261D01*
X623846Y306316D01*
X623729Y306369D01*
X623611Y306417D01*
X623491Y306463D01*
X623370Y306505D01*
X623247Y306543D01*
X623124Y306578D01*
X623000Y306609D01*
X622874Y306636D01*
X622748Y306660D01*
X622622Y306681D01*
X622495Y306697D01*
X622367Y306710D01*
X622239Y306720D01*
X622111Y306725D01*
X621983Y306727D01*
X625193Y305352D02*
X634365Y297555D01*
X634365Y306728D01*
X589421Y150495D02*
X589421Y133985D01*
X584835Y150495D02*
X594007Y150495D01*
X599424Y146826D02*
X604010Y150495D01*
X604010Y133985D01*
X599424Y133985D02*
X608596Y133985D01*
D13*
X258480Y472440D02*
X258482Y472591D01*
X258488Y472741D01*
X258498Y472891D01*
X258512Y473041D01*
X258530Y473191D01*
X258552Y473340D01*
X258578Y473488D01*
X258607Y473636D01*
X258641Y473782D01*
X258678Y473928D01*
X258720Y474073D01*
X258765Y474217D01*
X258814Y474359D01*
X258867Y474500D01*
X258923Y474640D01*
X258983Y474778D01*
X259047Y474914D01*
X259115Y475049D01*
X259185Y475182D01*
X259260Y475313D01*
X259338Y475441D01*
X259419Y475568D01*
X259504Y475693D01*
X259591Y475815D01*
X259683Y475935D01*
X259777Y476052D01*
X259874Y476167D01*
X259974Y476280D01*
X260078Y476389D01*
X260184Y476496D01*
X260293Y476600D01*
X260404Y476701D01*
X260519Y476799D01*
X260635Y476894D01*
X260755Y476986D01*
X260876Y477075D01*
X261000Y477160D01*
X261127Y477242D01*
X261255Y477321D01*
X261385Y477396D01*
X261518Y477468D01*
X261652Y477536D01*
X261788Y477601D01*
X261926Y477662D01*
X262065Y477719D01*
X262206Y477773D01*
X262348Y477823D01*
X262491Y477869D01*
X262635Y477912D01*
X262781Y477950D01*
X262928Y477985D01*
X263075Y478015D01*
X263223Y478042D01*
X263372Y478065D01*
X263521Y478084D01*
X263671Y478099D01*
X263821Y478110D01*
X263972Y478117D01*
X264122Y478120D01*
X264273Y478119D01*
X264423Y478114D01*
X264574Y478105D01*
X264724Y478092D01*
X264873Y478075D01*
X265023Y478054D01*
X265171Y478029D01*
X265319Y478001D01*
X265466Y477968D01*
X265612Y477931D01*
X265757Y477891D01*
X265901Y477847D01*
X266044Y477799D01*
X266185Y477747D01*
X266325Y477691D01*
X266463Y477632D01*
X266600Y477569D01*
X266735Y477503D01*
X266869Y477433D01*
X267000Y477359D01*
X267129Y477282D01*
X267257Y477202D01*
X267382Y477118D01*
X267505Y477031D01*
X267625Y476941D01*
X267743Y476847D01*
X267859Y476751D01*
X267972Y476651D01*
X268082Y476548D01*
X268190Y476443D01*
X268294Y476335D01*
X268396Y476224D01*
X268495Y476110D01*
X268591Y475994D01*
X268683Y475875D01*
X268773Y475754D01*
X268859Y475631D01*
X268942Y475505D01*
X269022Y475377D01*
X269098Y475247D01*
X269170Y475115D01*
X269240Y474982D01*
X269305Y474846D01*
X269367Y474709D01*
X269425Y474570D01*
X269480Y474430D01*
X269531Y474288D01*
X269578Y474145D01*
X269621Y474001D01*
X269661Y473855D01*
X269696Y473709D01*
X269728Y473562D01*
X269756Y473414D01*
X269780Y473265D01*
X269800Y473116D01*
X269816Y472966D01*
X269828Y472816D01*
X269836Y472666D01*
X269840Y472515D01*
X269840Y472365D01*
X269836Y472214D01*
X269828Y472064D01*
X269816Y471914D01*
X269800Y471764D01*
X269780Y471615D01*
X269756Y471466D01*
X269728Y471318D01*
X269696Y471171D01*
X269661Y471025D01*
X269621Y470879D01*
X269578Y470735D01*
X269531Y470592D01*
X269480Y470450D01*
X269425Y470310D01*
X269367Y470171D01*
X269305Y470034D01*
X269240Y469898D01*
X269170Y469765D01*
X269098Y469633D01*
X269022Y469503D01*
X268942Y469375D01*
X268859Y469249D01*
X268773Y469126D01*
X268683Y469005D01*
X268591Y468886D01*
X268495Y468770D01*
X268396Y468656D01*
X268294Y468545D01*
X268190Y468437D01*
X268082Y468332D01*
X267972Y468229D01*
X267859Y468129D01*
X267743Y468033D01*
X267625Y467939D01*
X267505Y467849D01*
X267382Y467762D01*
X267257Y467678D01*
X267129Y467598D01*
X267000Y467521D01*
X266869Y467447D01*
X266735Y467377D01*
X266600Y467311D01*
X266463Y467248D01*
X266325Y467189D01*
X266185Y467133D01*
X266044Y467081D01*
X265901Y467033D01*
X265757Y466989D01*
X265612Y466949D01*
X265466Y466912D01*
X265319Y466879D01*
X265171Y466851D01*
X265023Y466826D01*
X264873Y466805D01*
X264724Y466788D01*
X264574Y466775D01*
X264423Y466766D01*
X264273Y466761D01*
X264122Y466760D01*
X263972Y466763D01*
X263821Y466770D01*
X263671Y466781D01*
X263521Y466796D01*
X263372Y466815D01*
X263223Y466838D01*
X263075Y466865D01*
X262928Y466895D01*
X262781Y466930D01*
X262635Y466968D01*
X262491Y467011D01*
X262348Y467057D01*
X262206Y467107D01*
X262065Y467161D01*
X261926Y467218D01*
X261788Y467279D01*
X261652Y467344D01*
X261518Y467412D01*
X261385Y467484D01*
X261255Y467559D01*
X261127Y467638D01*
X261000Y467720D01*
X260876Y467805D01*
X260755Y467894D01*
X260635Y467986D01*
X260519Y468081D01*
X260404Y468179D01*
X260293Y468280D01*
X260184Y468384D01*
X260078Y468491D01*
X259974Y468600D01*
X259874Y468713D01*
X259777Y468828D01*
X259683Y468945D01*
X259591Y469065D01*
X259504Y469187D01*
X259419Y469312D01*
X259338Y469439D01*
X259260Y469567D01*
X259185Y469698D01*
X259115Y469831D01*
X259047Y469966D01*
X258983Y470102D01*
X258923Y470240D01*
X258867Y470380D01*
X258814Y470521D01*
X258765Y470663D01*
X258720Y470807D01*
X258678Y470952D01*
X258641Y471098D01*
X258607Y471244D01*
X258578Y471392D01*
X258552Y471540D01*
X258530Y471689D01*
X258512Y471839D01*
X258498Y471989D01*
X258488Y472139D01*
X258482Y472289D01*
X258480Y472440D01*
X260568Y472440D02*
X260570Y472559D01*
X260576Y472679D01*
X260586Y472798D01*
X260600Y472916D01*
X260618Y473034D01*
X260639Y473152D01*
X260665Y473268D01*
X260694Y473384D01*
X260728Y473499D01*
X260765Y473612D01*
X260806Y473724D01*
X260850Y473835D01*
X260898Y473945D01*
X260950Y474052D01*
X261005Y474158D01*
X261064Y474262D01*
X261127Y474364D01*
X261192Y474463D01*
X261261Y474561D01*
X261333Y474656D01*
X261408Y474749D01*
X261487Y474839D01*
X261568Y474927D01*
X261652Y475011D01*
X261739Y475093D01*
X261828Y475172D01*
X261920Y475248D01*
X262015Y475321D01*
X262112Y475391D01*
X262211Y475457D01*
X262313Y475520D01*
X262416Y475580D01*
X262521Y475636D01*
X262628Y475689D01*
X262737Y475738D01*
X262848Y475784D01*
X262960Y475825D01*
X263073Y475863D01*
X263187Y475898D01*
X263303Y475928D01*
X263419Y475955D01*
X263536Y475977D01*
X263654Y475996D01*
X263773Y476011D01*
X263892Y476022D01*
X264011Y476029D01*
X264130Y476032D01*
X264250Y476031D01*
X264369Y476026D01*
X264488Y476017D01*
X264607Y476004D01*
X264725Y475987D01*
X264842Y475967D01*
X264959Y475942D01*
X265075Y475913D01*
X265190Y475881D01*
X265304Y475845D01*
X265417Y475805D01*
X265528Y475761D01*
X265637Y475714D01*
X265745Y475663D01*
X265852Y475609D01*
X265956Y475551D01*
X266058Y475489D01*
X266159Y475425D01*
X266257Y475356D01*
X266353Y475285D01*
X266446Y475211D01*
X266537Y475133D01*
X266625Y475053D01*
X266710Y474969D01*
X266793Y474883D01*
X266873Y474794D01*
X266950Y474703D01*
X267023Y474609D01*
X267094Y474512D01*
X267161Y474414D01*
X267225Y474313D01*
X267286Y474210D01*
X267343Y474105D01*
X267396Y473999D01*
X267446Y473890D01*
X267493Y473780D01*
X267535Y473669D01*
X267574Y473556D01*
X267610Y473442D01*
X267641Y473326D01*
X267668Y473210D01*
X267692Y473093D01*
X267712Y472975D01*
X267728Y472857D01*
X267740Y472738D01*
X267748Y472619D01*
X267752Y472500D01*
X267752Y472380D01*
X267748Y472261D01*
X267740Y472142D01*
X267728Y472023D01*
X267712Y471905D01*
X267692Y471787D01*
X267668Y471670D01*
X267641Y471554D01*
X267610Y471438D01*
X267574Y471324D01*
X267535Y471211D01*
X267493Y471100D01*
X267446Y470990D01*
X267396Y470881D01*
X267343Y470775D01*
X267286Y470670D01*
X267225Y470567D01*
X267161Y470466D01*
X267094Y470368D01*
X267023Y470271D01*
X266950Y470177D01*
X266873Y470086D01*
X266793Y469997D01*
X266710Y469911D01*
X266625Y469827D01*
X266537Y469747D01*
X266446Y469669D01*
X266353Y469595D01*
X266257Y469524D01*
X266159Y469455D01*
X266058Y469391D01*
X265956Y469329D01*
X265852Y469271D01*
X265745Y469217D01*
X265637Y469166D01*
X265528Y469119D01*
X265417Y469075D01*
X265304Y469035D01*
X265190Y468999D01*
X265075Y468967D01*
X264959Y468938D01*
X264842Y468913D01*
X264725Y468893D01*
X264607Y468876D01*
X264488Y468863D01*
X264369Y468854D01*
X264250Y468849D01*
X264130Y468848D01*
X264011Y468851D01*
X263892Y468858D01*
X263773Y468869D01*
X263654Y468884D01*
X263536Y468903D01*
X263419Y468925D01*
X263303Y468952D01*
X263187Y468982D01*
X263073Y469017D01*
X262960Y469055D01*
X262848Y469096D01*
X262737Y469142D01*
X262628Y469191D01*
X262521Y469244D01*
X262416Y469300D01*
X262313Y469360D01*
X262211Y469423D01*
X262112Y469489D01*
X262015Y469559D01*
X261920Y469632D01*
X261828Y469708D01*
X261739Y469787D01*
X261652Y469869D01*
X261568Y469953D01*
X261487Y470041D01*
X261408Y470131D01*
X261333Y470224D01*
X261261Y470319D01*
X261192Y470417D01*
X261127Y470516D01*
X261064Y470618D01*
X261005Y470722D01*
X260950Y470828D01*
X260898Y470935D01*
X260850Y471045D01*
X260806Y471156D01*
X260765Y471268D01*
X260728Y471381D01*
X260694Y471496D01*
X260665Y471612D01*
X260639Y471728D01*
X260618Y471846D01*
X260600Y471964D01*
X260586Y472082D01*
X260576Y472201D01*
X260570Y472321D01*
X260568Y472440D01*
X262890Y472440D02*
X262892Y472511D01*
X262898Y472582D01*
X262908Y472653D01*
X262922Y472723D01*
X262940Y472792D01*
X262961Y472859D01*
X262987Y472926D01*
X263016Y472991D01*
X263048Y473054D01*
X263085Y473116D01*
X263124Y473175D01*
X263167Y473232D01*
X263213Y473286D01*
X263262Y473338D01*
X263314Y473387D01*
X263368Y473433D01*
X263425Y473476D01*
X263484Y473515D01*
X263546Y473552D01*
X263609Y473584D01*
X263674Y473613D01*
X263741Y473639D01*
X263808Y473660D01*
X263877Y473678D01*
X263947Y473692D01*
X264018Y473702D01*
X264089Y473708D01*
X264160Y473710D01*
X264231Y473708D01*
X264302Y473702D01*
X264373Y473692D01*
X264443Y473678D01*
X264512Y473660D01*
X264579Y473639D01*
X264646Y473613D01*
X264711Y473584D01*
X264774Y473552D01*
X264836Y473515D01*
X264895Y473476D01*
X264952Y473433D01*
X265006Y473387D01*
X265058Y473338D01*
X265107Y473286D01*
X265153Y473232D01*
X265196Y473175D01*
X265235Y473116D01*
X265272Y473054D01*
X265304Y472991D01*
X265333Y472926D01*
X265359Y472859D01*
X265380Y472792D01*
X265398Y472723D01*
X265412Y472653D01*
X265422Y472582D01*
X265428Y472511D01*
X265430Y472440D01*
X265428Y472369D01*
X265422Y472298D01*
X265412Y472227D01*
X265398Y472157D01*
X265380Y472088D01*
X265359Y472021D01*
X265333Y471954D01*
X265304Y471889D01*
X265272Y471826D01*
X265235Y471764D01*
X265196Y471705D01*
X265153Y471648D01*
X265107Y471594D01*
X265058Y471542D01*
X265006Y471493D01*
X264952Y471447D01*
X264895Y471404D01*
X264836Y471365D01*
X264774Y471328D01*
X264711Y471296D01*
X264646Y471267D01*
X264579Y471241D01*
X264512Y471220D01*
X264443Y471202D01*
X264373Y471188D01*
X264302Y471178D01*
X264231Y471172D01*
X264160Y471170D01*
X264089Y471172D01*
X264018Y471178D01*
X263947Y471188D01*
X263877Y471202D01*
X263808Y471220D01*
X263741Y471241D01*
X263674Y471267D01*
X263609Y471296D01*
X263546Y471328D01*
X263484Y471365D01*
X263425Y471404D01*
X263368Y471447D01*
X263314Y471493D01*
X263262Y471542D01*
X263213Y471594D01*
X263167Y471648D01*
X263124Y471705D01*
X263085Y471764D01*
X263048Y471826D01*
X263016Y471889D01*
X262987Y471954D01*
X262961Y472021D01*
X262940Y472088D01*
X262922Y472157D01*
X262908Y472227D01*
X262898Y472298D01*
X262892Y472369D01*
X262890Y472440D01*
D14*
X35000Y35000D03*
X797000Y543000D03*
D15*
X248550Y431850D03*
D16*
X235050Y431850D03*
D17*
X235050Y443850D03*
D18*
X248550Y443850D03*
D19*
X323850Y452370D03*
X323850Y423930D03*
D20*
X158750Y417800D03*
X158750Y445800D03*
D21*
X504350Y102650D03*
X524350Y102650D03*
D22*
X514350Y135150D03*
D23*
X546100Y201500D03*
X555600Y179500D03*
X536600Y179500D03*
D21*
X546100Y237150D03*
X546100Y258150D03*
D24*
X546100Y327050D03*
X546100Y346050D03*
D25*
X45800Y343200D03*
X45800Y336700D03*
X45800Y330200D03*
X45800Y323700D03*
X45800Y317200D03*
D26*
X19050Y369700D03*
X19050Y342200D03*
X19050Y318200D03*
X19050Y290700D03*
D19*
X546100Y411230D03*
X546100Y439670D03*
D27*
X71370Y158750D03*
X42930Y158750D03*
D19*
X406400Y420620D03*
X406400Y392180D03*
X609600Y201680D03*
X609600Y230120D03*
D13*
X234675Y444225D02*
X233100Y445800D01*
X234675Y444225D02*
X235050Y443850D01*
X239990Y448790D01*
X239990Y450278D01*
X242222Y452510D01*
X254878Y452510D01*
X255018Y452370D01*
X323850Y452370D01*
X533400Y452370D01*
X546100Y439670D01*
X546100Y411230D02*
X546100Y346050D01*
X76200Y342900D02*
X76200Y406400D01*
X76200Y342900D02*
X46100Y342900D01*
X45800Y343200D01*
X114300Y444500D02*
X115600Y445800D01*
X114300Y444500D02*
X76200Y406400D01*
X546100Y411230D02*
X546100Y439670D01*
X114300Y444500D02*
X114300Y445800D01*
X115600Y445800D01*
X114300Y444500D02*
X158750Y444500D01*
X158750Y445800D01*
X234675Y445800D01*
X234675Y444225D01*
X482600Y144400D02*
X524350Y102650D01*
X482600Y177800D02*
X484300Y179500D01*
X536600Y179500D01*
X482600Y177800D02*
X482600Y144400D01*
X17780Y331510D02*
X17780Y340930D01*
X20320Y340930D01*
X20320Y319470D01*
X17780Y319470D01*
X17780Y331510D01*
X0Y495300D02*
X654050Y495300D01*
X654050Y57150D01*
X0Y57150D01*
X0Y495300D01*
X599007Y189870D02*
X604520Y189870D01*
X604520Y182880D01*
X564410Y182880D01*
X564410Y188078D01*
X562178Y190310D01*
X549022Y190310D01*
X546790Y188078D01*
X546790Y170922D01*
X549022Y168690D01*
X550520Y168690D01*
X550520Y157654D01*
X550346Y157480D01*
X512246Y157480D01*
X509270Y154504D01*
X509270Y146460D01*
X504772Y146460D01*
X502540Y144228D01*
X502540Y126072D01*
X504772Y123840D01*
X523928Y123840D01*
X526160Y126072D01*
X526160Y144228D01*
X523928Y146460D01*
X519430Y146460D01*
X519430Y147320D01*
X554554Y147320D01*
X557530Y150296D01*
X557530Y150296D01*
X557704Y150470D01*
X557704Y150470D01*
X560680Y153446D01*
X560680Y168690D01*
X562178Y168690D01*
X564410Y170922D01*
X564410Y172720D01*
X611704Y172720D01*
X614680Y175696D01*
X614680Y189870D01*
X620193Y189870D01*
X622425Y192102D01*
X622425Y211258D01*
X620193Y213490D01*
X614680Y213490D01*
X614680Y218310D01*
X620193Y218310D01*
X622425Y220542D01*
X622425Y239698D01*
X620193Y241930D01*
X599007Y241930D01*
X596775Y239698D01*
X596775Y220542D01*
X599007Y218310D01*
X604520Y218310D01*
X604520Y213490D01*
X599007Y213490D01*
X596775Y211258D01*
X596775Y192102D01*
X599007Y189870D01*
X72640Y171575D02*
X72640Y160020D01*
X70100Y160020D01*
X70100Y171575D01*
X62868Y171575D01*
X61899Y171315D01*
X61031Y170814D01*
X60321Y170104D01*
X59820Y169236D01*
X59560Y168267D01*
X59560Y160020D01*
X70100Y160020D01*
X70100Y157480D01*
X59560Y157480D01*
X59560Y149233D01*
X59820Y148264D01*
X60321Y147396D01*
X61031Y146686D01*
X61899Y146185D01*
X62868Y145925D01*
X70100Y145925D01*
X70100Y157480D01*
X72640Y157480D01*
X72640Y145925D01*
X79872Y145925D01*
X80841Y146185D01*
X81709Y146686D01*
X82419Y147396D01*
X82920Y148264D01*
X83180Y149233D01*
X83180Y157480D01*
X72640Y157480D01*
X72640Y160020D01*
X83180Y160020D01*
X83180Y168267D01*
X82920Y169236D01*
X82419Y170104D01*
X81709Y170814D01*
X80841Y171315D01*
X79872Y171575D01*
X72640Y171575D01*
X32360Y316930D02*
X20320Y316930D01*
X20320Y319470D01*
X32360Y319470D01*
X32360Y328202D01*
X32100Y329171D01*
X31599Y330039D01*
X31438Y330200D01*
X31599Y330361D01*
X32100Y331229D01*
X32360Y332198D01*
X32360Y340930D01*
X20320Y340930D01*
X20320Y343470D01*
X32360Y343470D01*
X32360Y352202D01*
X32100Y353171D01*
X31599Y354039D01*
X30889Y354749D01*
X30021Y355250D01*
X29052Y355510D01*
X20320Y355510D01*
X20320Y343470D01*
X17780Y343470D01*
X17780Y355510D01*
X9048Y355510D01*
X8079Y355250D01*
X7211Y354749D01*
X6501Y354039D01*
X6000Y353171D01*
X5740Y352202D01*
X5740Y343470D01*
X17780Y343470D01*
X17780Y340930D01*
X5740Y340930D01*
X5740Y332198D01*
X6000Y331229D01*
X6501Y330361D01*
X6662Y330200D01*
X6501Y330039D01*
X6000Y329171D01*
X5740Y328202D01*
X5740Y319470D01*
X17780Y319470D01*
X17780Y316930D01*
X5740Y316930D01*
X5740Y308198D01*
X6000Y307229D01*
X6501Y306361D01*
X7211Y305651D01*
X8079Y305150D01*
X9048Y304890D01*
X17780Y304890D01*
X17780Y316930D01*
X20320Y316930D01*
X20320Y304890D01*
X29052Y304890D01*
X30021Y305150D01*
X30889Y305651D01*
X31599Y306361D01*
X32100Y307229D01*
X32360Y308198D01*
X32360Y316930D01*
X32360Y368430D02*
X20320Y368430D01*
X20320Y370970D01*
X32360Y370970D01*
X32360Y379702D01*
X32100Y380671D01*
X31599Y381539D01*
X30889Y382249D01*
X30021Y382750D01*
X29052Y383010D01*
X20320Y383010D01*
X20320Y370970D01*
X17780Y370970D01*
X17780Y383010D01*
X9048Y383010D01*
X8079Y382750D01*
X7211Y382249D01*
X6501Y381539D01*
X6000Y380671D01*
X5740Y379702D01*
X5740Y370970D01*
X17780Y370970D01*
X17780Y368430D01*
X5740Y368430D01*
X5740Y359698D01*
X6000Y358729D01*
X6501Y357861D01*
X7211Y357151D01*
X8079Y356650D01*
X9048Y356390D01*
X17780Y356390D01*
X17780Y368430D01*
X20320Y368430D01*
X20320Y356390D01*
X29052Y356390D01*
X30021Y356650D01*
X30889Y357151D01*
X31599Y357861D01*
X32100Y358729D01*
X32360Y359698D01*
X32360Y368430D01*
X537830Y190310D02*
X537830Y180730D01*
X535370Y180730D01*
X535370Y190310D01*
X531098Y190310D01*
X530129Y190050D01*
X529261Y189549D01*
X528551Y188839D01*
X528050Y187971D01*
X527790Y187002D01*
X527790Y180730D01*
X535370Y180730D01*
X535370Y178270D01*
X527790Y178270D01*
X527790Y171998D01*
X528050Y171029D01*
X528551Y170161D01*
X529261Y169451D01*
X530129Y168950D01*
X531098Y168690D01*
X535370Y168690D01*
X535370Y178270D01*
X537830Y178270D01*
X537830Y168690D01*
X542102Y168690D01*
X543071Y168950D01*
X543939Y169451D01*
X544649Y170161D01*
X545150Y171029D01*
X545410Y171998D01*
X545410Y178270D01*
X537830Y178270D01*
X537830Y180730D01*
X545410Y180730D01*
X545410Y187002D01*
X545150Y187971D01*
X544649Y188839D01*
X543939Y189549D01*
X543071Y190050D01*
X542102Y190310D01*
X537830Y190310D01*
X554910Y192922D02*
X554910Y210078D01*
X552678Y212310D01*
X551180Y212310D01*
X551180Y227340D01*
X553678Y227340D01*
X555910Y229572D01*
X555910Y244728D01*
X553678Y246960D01*
X538522Y246960D01*
X536290Y244728D01*
X536290Y229572D01*
X538522Y227340D01*
X541020Y227340D01*
X541020Y212310D01*
X539522Y212310D01*
X537290Y210078D01*
X537290Y192922D01*
X539522Y190690D01*
X552678Y190690D01*
X554910Y192922D01*
X157480Y419070D02*
X145940Y419070D01*
X157480Y419070D02*
X157480Y416530D01*
X145940Y416530D01*
X145940Y409298D01*
X146200Y408329D01*
X146701Y407461D01*
X147411Y406751D01*
X148279Y406250D01*
X149248Y405990D01*
X157480Y405990D01*
X157480Y416530D01*
X160020Y416530D01*
X160020Y405990D01*
X168252Y405990D01*
X169221Y406250D01*
X170089Y406751D01*
X170799Y407461D01*
X171300Y408329D01*
X171560Y409298D01*
X171560Y416530D01*
X160020Y416530D01*
X160020Y419070D01*
X171560Y419070D01*
X171560Y426302D01*
X171300Y427271D01*
X170799Y428139D01*
X170089Y428849D01*
X169221Y429350D01*
X168252Y429610D01*
X160020Y429610D01*
X160020Y419070D01*
X157480Y419070D01*
X157480Y429610D01*
X149248Y429610D01*
X148279Y429350D01*
X147411Y428849D01*
X146701Y428139D01*
X146200Y427271D01*
X145940Y426302D01*
X145940Y419070D01*
X619685Y311173D02*
X623824Y311173D01*
X619685Y311173D02*
X619685Y311173D01*
X615707Y308876D01*
X615707Y308876D01*
X613410Y304897D01*
X613410Y300527D01*
X615098Y296739D01*
X615098Y296739D01*
X617353Y294711D01*
X615830Y293832D01*
X615830Y293832D01*
X615830Y293832D01*
X613410Y289641D01*
X613410Y280794D01*
X614633Y279571D01*
X613410Y278348D01*
X613410Y265494D01*
X616014Y262890D01*
X619696Y262890D01*
X622300Y265494D01*
X622300Y267476D01*
X636206Y267476D01*
X638810Y270080D01*
X638810Y273762D01*
X636206Y276366D01*
X622300Y276366D01*
X622300Y278190D01*
X636206Y278190D01*
X638810Y280794D01*
X638810Y284476D01*
X636206Y287080D01*
X631472Y287080D01*
X631472Y289641D01*
X629052Y293832D01*
X629052Y293832D01*
X629052Y293832D01*
X625630Y295808D01*
X626320Y297938D01*
X625758Y299038D01*
X631349Y294285D01*
X632524Y293110D01*
X632731Y293110D01*
X632889Y292976D01*
X634545Y293110D01*
X636206Y293110D01*
X636353Y293257D01*
X636559Y293274D01*
X637635Y294540D01*
X638810Y295714D01*
X638810Y295922D01*
X638944Y296079D01*
X638810Y297735D01*
X638810Y308569D01*
X636206Y311173D01*
X632524Y311173D01*
X629920Y308569D01*
X629920Y307167D01*
X628250Y308587D01*
X627155Y309737D01*
X627155Y309737D01*
X623838Y311158D01*
X623824Y311173D01*
X594360Y322644D02*
X591756Y320040D01*
X594360Y322644D02*
X594360Y326326D01*
X591756Y328930D01*
X590400Y328930D01*
X593550Y330505D01*
X594714Y333998D01*
X593198Y337031D01*
X594360Y338193D01*
X594360Y347040D01*
X591940Y351231D01*
X591940Y351231D01*
X591940Y351231D01*
X587749Y353651D01*
X582909Y353651D01*
X581078Y352594D01*
X579248Y353651D01*
X574900Y353651D01*
X571134Y351477D01*
X571134Y351477D01*
X571134Y351477D01*
X568960Y347711D01*
X568960Y338193D01*
X571437Y335715D01*
X571380Y335682D01*
X571380Y335682D01*
X571380Y335682D01*
X568960Y331491D01*
X568960Y322644D01*
X571564Y320040D01*
X575246Y320040D01*
X591756Y320040D01*
X591756Y400826D02*
X594360Y403430D01*
X594360Y407112D01*
X591756Y409716D01*
X577850Y409716D01*
X577850Y411540D01*
X591756Y411540D01*
X594360Y414144D01*
X594360Y417826D01*
X591756Y420430D01*
X587022Y420430D01*
X587022Y422991D01*
X584602Y427182D01*
X584602Y427182D01*
X584602Y427182D01*
X582617Y428328D01*
X585188Y430899D01*
X585188Y435492D01*
X585193Y435528D01*
X585229Y435591D01*
X585292Y435628D01*
X585365Y435628D01*
X585429Y435591D01*
X585465Y435528D01*
X585470Y435491D01*
X585470Y429064D01*
X588074Y426460D01*
X591756Y426460D01*
X594360Y429064D01*
X594360Y437911D01*
X591940Y442103D01*
X591940Y442103D01*
X591940Y442103D01*
X587749Y444523D01*
X582909Y444523D01*
X581078Y443466D01*
X579248Y444523D01*
X574900Y444523D01*
X571134Y442348D01*
X571134Y442348D01*
X571134Y442348D01*
X568960Y438583D01*
X568960Y429064D01*
X571183Y426841D01*
X568960Y422991D01*
X568960Y414144D01*
X570183Y412921D01*
X568960Y411698D01*
X568960Y398844D01*
X571564Y396240D01*
X575246Y396240D01*
X577850Y398844D01*
X577850Y400826D01*
X591756Y400826D01*
X391160Y339930D02*
X388556Y337326D01*
X391160Y339930D02*
X391160Y343612D01*
X388556Y346216D01*
X374650Y346216D01*
X374650Y348040D01*
X388556Y348040D01*
X391160Y350644D01*
X391160Y354326D01*
X388556Y356930D01*
X383822Y356930D01*
X383822Y359491D01*
X381402Y363682D01*
X381402Y363682D01*
X381402Y363682D01*
X378142Y365565D01*
X378362Y367547D01*
X382270Y367547D01*
X382270Y365564D01*
X384874Y362960D01*
X388556Y362960D01*
X391160Y365564D01*
X391160Y378419D01*
X388556Y381023D01*
X384874Y381023D01*
X382270Y378419D01*
X382270Y376436D01*
X370451Y376436D01*
X368866Y376613D01*
X368646Y376436D01*
X368364Y376436D01*
X367236Y375309D01*
X365991Y374312D01*
X365959Y374032D01*
X365760Y373833D01*
X365760Y372238D01*
X365584Y370652D01*
X365760Y370432D01*
X365760Y370150D01*
X366888Y369023D01*
X370219Y364859D01*
X368180Y363682D01*
X368180Y363682D01*
X368180Y363682D01*
X365760Y359491D01*
X365760Y350644D01*
X366983Y349421D01*
X365760Y348198D01*
X365760Y335344D01*
X368364Y332740D01*
X372046Y332740D01*
X374650Y335344D01*
X374650Y337326D01*
X388556Y337326D01*
X334010Y354394D02*
X331406Y351790D01*
X334010Y354394D02*
X334010Y358076D01*
X331406Y360680D01*
X330050Y360680D01*
X333200Y362255D01*
X334364Y365748D01*
X332848Y368781D01*
X334010Y369943D01*
X334010Y382797D01*
X331406Y385401D01*
X327724Y385401D01*
X325120Y382797D01*
X325120Y380815D01*
X313301Y380815D01*
X311716Y380991D01*
X311496Y380815D01*
X311214Y380815D01*
X310086Y379687D01*
X308841Y378691D01*
X308809Y378411D01*
X308610Y378211D01*
X308610Y376616D01*
X308434Y375031D01*
X308610Y374811D01*
X308610Y374529D01*
X309738Y373401D01*
X313412Y368808D01*
X311030Y367432D01*
X311030Y367432D01*
X308610Y363241D01*
X308610Y354394D01*
X311214Y351790D01*
X314896Y351790D01*
X331406Y351790D01*
X170180Y362941D02*
X169153Y363967D01*
X170180Y364994D01*
X170180Y377812D01*
X167502Y380491D01*
X163714Y380491D01*
X161036Y377812D01*
X161036Y375975D01*
X149605Y375975D01*
X147975Y376156D01*
X147748Y375975D01*
X147458Y375975D01*
X146298Y374815D01*
X145017Y373790D01*
X144985Y373502D01*
X144780Y373297D01*
X144780Y371656D01*
X144599Y370026D01*
X144780Y369799D01*
X144780Y369509D01*
X145940Y368349D01*
X148124Y365619D01*
X147458Y365619D01*
X144780Y362941D01*
X144780Y359328D01*
X144780Y359328D01*
X144780Y357434D01*
X144780Y355241D01*
X144780Y355241D01*
X146973Y351443D01*
X146973Y351443D01*
X146973Y351443D01*
X150771Y349250D01*
X164189Y349250D01*
X167987Y351443D01*
X167987Y351443D01*
X170180Y355241D01*
X170180Y359328D01*
X170180Y362941D01*
X487669Y205740D02*
X494929Y205740D01*
X495017Y205660D01*
X496701Y205740D01*
X502931Y205740D01*
X505460Y208269D01*
X505460Y211847D01*
X504076Y213231D01*
X504780Y213615D01*
X505789Y217047D01*
X504076Y220187D01*
X501261Y221015D01*
X504518Y228830D01*
X503156Y232138D01*
X500916Y233071D01*
X500916Y242931D01*
X502931Y242931D01*
X505460Y245461D01*
X505460Y254231D01*
X504892Y254799D01*
X505460Y255367D01*
X505460Y264137D01*
X504903Y264693D01*
X505460Y265250D01*
X505460Y270449D01*
X505460Y272311D01*
X505460Y272311D01*
X503721Y275322D01*
X505460Y277061D01*
X505460Y287129D01*
X502931Y289659D01*
X499353Y289659D01*
X496824Y287129D01*
X496824Y286413D01*
X489697Y286413D01*
X488157Y286584D01*
X487943Y286413D01*
X487669Y286413D01*
X486574Y285317D01*
X485364Y284350D01*
X485334Y284077D01*
X485140Y283884D01*
X485140Y282334D01*
X484969Y280794D01*
X485140Y280580D01*
X485140Y280307D01*
X486236Y279211D01*
X488385Y276524D01*
X487167Y275821D01*
X487167Y275821D01*
X487167Y275821D01*
X485140Y272311D01*
X485140Y265250D01*
X485697Y264693D01*
X485140Y264137D01*
X485140Y255367D01*
X487669Y252837D01*
X496824Y252837D01*
X496824Y251567D01*
X487669Y251567D01*
X485140Y249038D01*
X485140Y245461D01*
X487669Y242931D01*
X492280Y242931D01*
X492280Y233071D01*
X490041Y232138D01*
X488679Y228830D01*
X492527Y219595D01*
X491039Y220947D01*
X487466Y220777D01*
X485060Y218130D01*
X485230Y214557D01*
X486603Y213309D01*
X485140Y211847D01*
X485140Y208269D01*
X487669Y205740D01*
X584976Y132144D02*
X587580Y129540D01*
X591262Y129540D01*
X593866Y132144D01*
X593866Y146050D01*
X594866Y146050D01*
X594803Y145487D01*
X597103Y142612D01*
X599565Y142338D01*
X599565Y138430D01*
X597583Y138430D01*
X594979Y135826D01*
X594979Y132144D01*
X597583Y129540D01*
X610438Y129540D01*
X613041Y132144D01*
X613041Y135826D01*
X610438Y138430D01*
X608455Y138430D01*
X608455Y150249D01*
X608631Y151834D01*
X608455Y152054D01*
X608455Y152336D01*
X607327Y153464D01*
X606331Y154709D01*
X606051Y154741D01*
X605851Y154940D01*
X604256Y154940D01*
X602671Y155116D01*
X602451Y154940D01*
X602169Y154940D01*
X601041Y153812D01*
X598452Y151741D01*
X598452Y152336D01*
X595848Y154940D01*
X582994Y154940D01*
X580390Y152336D01*
X580390Y148654D01*
X582994Y146050D01*
X584976Y146050D01*
X584976Y132144D01*
X273212Y466623D02*
X273212Y466623D01*
X274920Y472440D01*
X274920Y472440D01*
X273212Y478257D01*
X273212Y478257D01*
X268630Y482227D01*
X268630Y482227D01*
X262629Y483090D01*
X262629Y483090D01*
X257114Y480572D01*
X257114Y480572D01*
X257114Y480572D01*
X253836Y475471D01*
X253836Y469409D01*
X257114Y464308D01*
X257114Y464308D01*
X257114Y464308D01*
X262629Y461790D01*
X262629Y461790D01*
X268630Y462653D01*
X268630Y462653D01*
X273212Y466623D01*
X501724Y112460D02*
X511928Y112460D01*
X501724Y112460D02*
X411480Y202704D01*
X411480Y380370D01*
X416993Y380370D01*
X419225Y382602D01*
X419225Y401758D01*
X416993Y403990D01*
X411480Y403990D01*
X411480Y408810D01*
X416993Y408810D01*
X419225Y411042D01*
X419225Y430198D01*
X416993Y432430D01*
X401774Y432430D01*
X391540Y442664D01*
X388564Y445640D01*
X336675Y445640D01*
X336675Y447290D01*
X531296Y447290D01*
X533275Y445311D01*
X533275Y430092D01*
X535507Y427860D01*
X541020Y427860D01*
X541020Y423040D01*
X535507Y423040D01*
X533275Y420808D01*
X533275Y401652D01*
X535507Y399420D01*
X541020Y399420D01*
X541020Y356360D01*
X537022Y356360D01*
X534790Y354128D01*
X534790Y337972D01*
X536212Y336550D01*
X534790Y335128D01*
X534790Y318972D01*
X537022Y316740D01*
X541020Y316740D01*
X541020Y267960D01*
X538522Y267960D01*
X536290Y265728D01*
X536290Y250572D01*
X538522Y248340D01*
X553678Y248340D01*
X555910Y250572D01*
X555910Y265728D01*
X553678Y267960D01*
X551180Y267960D01*
X551180Y316740D01*
X555178Y316740D01*
X557410Y318972D01*
X557410Y335128D01*
X555988Y336550D01*
X557410Y337972D01*
X557410Y354128D01*
X555178Y356360D01*
X551180Y356360D01*
X551180Y399420D01*
X556693Y399420D01*
X558925Y401652D01*
X558925Y420808D01*
X556693Y423040D01*
X551180Y423040D01*
X551180Y427860D01*
X556693Y427860D01*
X558925Y430092D01*
X558925Y449248D01*
X556693Y451480D01*
X541474Y451480D01*
X535504Y457450D01*
X336675Y457450D01*
X336675Y461948D01*
X334443Y464180D01*
X313257Y464180D01*
X311025Y461948D01*
X311025Y457450D01*
X257122Y457450D01*
X256982Y457590D01*
X240118Y457590D01*
X237142Y454614D01*
X235038Y452510D01*
X227722Y452510D01*
X226092Y450880D01*
X171560Y450880D01*
X171560Y455378D01*
X169328Y457610D01*
X148172Y457610D01*
X145940Y455378D01*
X145940Y449580D01*
X119004Y449580D01*
X117704Y450880D01*
X112196Y450880D01*
X109220Y447904D01*
X109220Y446604D01*
X71120Y408504D01*
X71120Y347980D01*
X55044Y347980D01*
X54109Y348915D01*
X44570Y348915D01*
X44570Y351865D01*
X42215Y354220D01*
X38885Y354220D01*
X36530Y351865D01*
X36530Y348535D01*
X36820Y348245D01*
X35259Y346683D01*
X35259Y320217D01*
X35388Y320088D01*
X35259Y319607D01*
X35259Y317200D01*
X45800Y317200D01*
X45800Y317200D01*
X35259Y317200D01*
X35259Y314793D01*
X35519Y313824D01*
X36020Y312956D01*
X36730Y312246D01*
X36845Y312180D01*
X36530Y311865D01*
X36530Y308535D01*
X38885Y306180D01*
X42215Y306180D01*
X44570Y308535D01*
X44570Y311485D01*
X45800Y311485D01*
X45800Y317200D01*
X45800Y317200D01*
X45800Y311485D01*
X53033Y311485D01*
X54002Y311745D01*
X54870Y312246D01*
X55580Y312956D01*
X56081Y313824D01*
X56341Y314793D01*
X56341Y317200D01*
X45800Y317200D01*
X45800Y317200D01*
X56341Y317200D01*
X56341Y319607D01*
X56212Y320088D01*
X56341Y320217D01*
X56341Y337820D01*
X78304Y337820D01*
X81280Y340796D01*
X81280Y404296D01*
X116404Y439420D01*
X145940Y439420D01*
X145940Y436222D01*
X148172Y433990D01*
X169328Y433990D01*
X171560Y436222D01*
X171560Y440720D01*
X225490Y440720D01*
X225490Y437422D01*
X225663Y437248D01*
X225490Y436602D01*
X225490Y432705D01*
X234195Y432705D01*
X234195Y430995D01*
X225490Y430995D01*
X225490Y427098D01*
X225750Y426129D01*
X226251Y425261D01*
X226961Y424551D01*
X227829Y424050D01*
X228798Y423790D01*
X234195Y423790D01*
X234195Y430995D01*
X235905Y430995D01*
X235905Y423790D01*
X241302Y423790D01*
X242027Y423985D01*
X242222Y423790D01*
X249426Y423790D01*
X251390Y421826D01*
X254366Y418850D01*
X311025Y418850D01*
X311025Y414352D01*
X313257Y412120D01*
X334443Y412120D01*
X336675Y414352D01*
X336675Y433508D01*
X334703Y435480D01*
X384356Y435480D01*
X393575Y426261D01*
X393575Y411042D01*
X395807Y408810D01*
X401320Y408810D01*
X401320Y403990D01*
X395807Y403990D01*
X393575Y401758D01*
X393575Y382602D01*
X395807Y380370D01*
X401320Y380370D01*
X401320Y198496D01*
X494540Y105276D01*
X494540Y95072D01*
X496772Y92840D01*
X511928Y92840D01*
X514160Y95072D01*
X514160Y110228D01*
X511928Y112460D01*
X514540Y103920D02*
X523080Y103920D01*
X523080Y101380D01*
X514540Y101380D01*
X514540Y96148D01*
X514800Y95179D01*
X515301Y94311D01*
X516011Y93601D01*
X516879Y93100D01*
X517848Y92840D01*
X523080Y92840D01*
X523080Y101380D01*
X525620Y101380D01*
X525620Y92840D01*
X530852Y92840D01*
X531821Y93100D01*
X532689Y93601D01*
X533399Y94311D01*
X533900Y95179D01*
X534160Y96148D01*
X534160Y101380D01*
X525620Y101380D01*
X525620Y103920D01*
X534160Y103920D01*
X534160Y109152D01*
X533900Y110121D01*
X533399Y110989D01*
X532689Y111699D01*
X531821Y112200D01*
X530852Y112460D01*
X525620Y112460D01*
X525620Y103920D01*
X523080Y103920D01*
X523080Y112460D01*
X517848Y112460D01*
X516879Y112200D01*
X516011Y111699D01*
X515301Y110989D01*
X514800Y110121D01*
X514540Y109152D01*
X514540Y103920D01*
X32360Y289430D02*
X20320Y289430D01*
X20320Y291970D01*
X32360Y291970D01*
X32360Y300702D01*
X32100Y301671D01*
X31599Y302539D01*
X30889Y303249D01*
X30021Y303750D01*
X29052Y304010D01*
X20320Y304010D01*
X20320Y291970D01*
X17780Y291970D01*
X17780Y304010D01*
X9048Y304010D01*
X8079Y303750D01*
X7211Y303249D01*
X6501Y302539D01*
X6000Y301671D01*
X5740Y300702D01*
X5740Y291970D01*
X17780Y291970D01*
X17780Y289430D01*
X5740Y289430D01*
X5740Y280698D01*
X6000Y279729D01*
X6501Y278861D01*
X7211Y278151D01*
X8079Y277650D01*
X9048Y277390D01*
X17780Y277390D01*
X17780Y289430D01*
X20320Y289430D01*
X20320Y277390D01*
X29052Y277390D01*
X30021Y277650D01*
X30889Y278151D01*
X31599Y278861D01*
X32100Y279729D01*
X32360Y280698D01*
X32360Y289430D01*
X44200Y171575D02*
X44200Y160020D01*
X41660Y160020D01*
X41660Y171575D01*
X34428Y171575D01*
X33459Y171315D01*
X32591Y170814D01*
X31881Y170104D01*
X31380Y169236D01*
X31120Y168267D01*
X31120Y160020D01*
X41660Y160020D01*
X41660Y157480D01*
X31120Y157480D01*
X31120Y149233D01*
X31380Y148264D01*
X31881Y147396D01*
X32591Y146686D01*
X33459Y146185D01*
X34428Y145925D01*
X41660Y145925D01*
X41660Y157480D01*
X44200Y157480D01*
X44200Y145925D01*
X51432Y145925D01*
X52401Y146185D01*
X53269Y146686D01*
X53979Y147396D01*
X54480Y148264D01*
X54740Y149233D01*
X54740Y157480D01*
X44200Y157480D01*
X44200Y160020D01*
X54740Y160020D01*
X54740Y168267D01*
X54480Y169236D01*
X53979Y170104D01*
X53269Y170814D01*
X52401Y171315D01*
X51432Y171575D01*
X44200Y171575D01*
X0Y76200D02*
X654050Y76200D01*
X494540Y101600D02*
X0Y101600D01*
X514160Y101600D02*
X523080Y101600D01*
X525620Y101600D02*
X654050Y101600D01*
X472816Y127000D02*
X0Y127000D01*
X487184Y127000D02*
X502540Y127000D01*
X526160Y127000D02*
X654050Y127000D01*
X31120Y152400D02*
X0Y152400D01*
X41660Y152400D02*
X44200Y152400D01*
X54740Y152400D02*
X59560Y152400D01*
X70100Y152400D02*
X72640Y152400D01*
X83180Y152400D02*
X447416Y152400D01*
X461784Y152400D02*
X509270Y152400D01*
X559634Y152400D02*
X580454Y152400D01*
X598388Y152400D02*
X599276Y152400D01*
X608391Y152400D02*
X654050Y152400D01*
X422016Y177800D02*
X0Y177800D01*
X436384Y177800D02*
X527790Y177800D01*
X535370Y177800D02*
X537830Y177800D01*
X545410Y177800D02*
X546790Y177800D01*
X614680Y177800D02*
X654050Y177800D01*
X401320Y203200D02*
X0Y203200D01*
X411480Y203200D02*
X537290Y203200D01*
X554910Y203200D02*
X596775Y203200D01*
X622425Y203200D02*
X654050Y203200D01*
X401320Y228600D02*
X0Y228600D01*
X411480Y228600D02*
X488775Y228600D01*
X504422Y228600D02*
X537262Y228600D01*
X554938Y228600D02*
X596775Y228600D01*
X622425Y228600D02*
X654050Y228600D01*
X401320Y254000D02*
X0Y254000D01*
X411480Y254000D02*
X486507Y254000D01*
X505460Y254000D02*
X536290Y254000D01*
X555910Y254000D02*
X654050Y254000D01*
X6190Y279400D02*
X0Y279400D01*
X17780Y279400D02*
X20320Y279400D01*
X31910Y279400D02*
X401320Y279400D01*
X411480Y279400D02*
X486047Y279400D01*
X505460Y279400D02*
X541020Y279400D01*
X551180Y279400D02*
X614462Y279400D01*
X637416Y279400D02*
X654050Y279400D01*
X401320Y304800D02*
X0Y304800D01*
X411480Y304800D02*
X541020Y304800D01*
X551180Y304800D02*
X613410Y304800D01*
X638810Y304800D02*
X654050Y304800D01*
X6662Y330200D02*
X0Y330200D01*
X17780Y330200D02*
X20320Y330200D01*
X31438Y330200D02*
X35259Y330200D01*
X56341Y330200D02*
X401320Y330200D01*
X411480Y330200D02*
X534790Y330200D01*
X557410Y330200D02*
X568960Y330200D01*
X592940Y330200D02*
X654050Y330200D01*
X71120Y355600D02*
X0Y355600D01*
X81280Y355600D02*
X144780Y355600D01*
X170180Y355600D02*
X308610Y355600D01*
X334010Y355600D02*
X365760Y355600D01*
X389886Y355600D02*
X401320Y355600D01*
X411480Y355600D02*
X536262Y355600D01*
X555938Y355600D02*
X654050Y355600D01*
X6190Y381000D02*
X0Y381000D01*
X17780Y381000D02*
X20320Y381000D01*
X31910Y381000D02*
X71120Y381000D01*
X81280Y381000D02*
X325120Y381000D01*
X334010Y381000D02*
X384851Y381000D01*
X388579Y381000D02*
X395177Y381000D01*
X417623Y381000D02*
X541020Y381000D01*
X551180Y381000D02*
X654050Y381000D01*
X71120Y406400D02*
X0Y406400D01*
X83384Y406400D02*
X148019Y406400D01*
X157480Y406400D02*
X160020Y406400D01*
X169481Y406400D02*
X401320Y406400D01*
X411480Y406400D02*
X533275Y406400D01*
X558925Y406400D02*
X568960Y406400D01*
X594360Y406400D02*
X654050Y406400D01*
X94416Y431800D02*
X0Y431800D01*
X108784Y431800D02*
X234195Y431800D01*
X336675Y431800D02*
X388036Y431800D01*
X417623Y431800D02*
X533275Y431800D01*
X558925Y431800D02*
X568960Y431800D01*
X585188Y431800D02*
X585470Y431800D01*
X594360Y431800D02*
X654050Y431800D01*
X147762Y457200D02*
X0Y457200D01*
X169738Y457200D02*
X239728Y457200D01*
X535754Y457200D02*
X654050Y457200D01*
X261556Y482600D02*
X0Y482600D01*
X266037Y482600D02*
X654050Y482600D01*
X0Y495300D02*
X0Y57150D01*
X25400Y57150D02*
X25400Y277390D01*
X25400Y289430D02*
X25400Y291970D01*
X25400Y304010D02*
X25400Y304890D01*
X25400Y316930D02*
X25400Y319470D01*
X25400Y340930D02*
X25400Y343470D01*
X25400Y355510D02*
X25400Y356390D01*
X25400Y368430D02*
X25400Y370970D01*
X25400Y383010D02*
X25400Y495300D01*
X50800Y145925D02*
X50800Y57150D01*
X50800Y157480D02*
X50800Y160020D01*
X50800Y171575D02*
X50800Y311485D01*
X50800Y317200D02*
X50800Y317200D01*
X50800Y348915D02*
X50800Y495300D01*
X76200Y145925D02*
X76200Y57150D01*
X76200Y157480D02*
X76200Y160020D01*
X76200Y171575D02*
X76200Y337820D01*
X76200Y413584D02*
X76200Y495300D01*
X101600Y424616D02*
X101600Y57150D01*
X101600Y438984D02*
X101600Y495300D01*
X127000Y439420D02*
X127000Y57150D01*
X127000Y449580D02*
X127000Y495300D01*
X152400Y349250D02*
X152400Y57150D01*
X152400Y375975D02*
X152400Y405990D01*
X152400Y416530D02*
X152400Y419070D01*
X152400Y429610D02*
X152400Y433990D01*
X152400Y457610D02*
X152400Y495300D01*
X177800Y440720D02*
X177800Y57150D01*
X177800Y450880D02*
X177800Y495300D01*
X203200Y440720D02*
X203200Y57150D01*
X203200Y450880D02*
X203200Y495300D01*
X228600Y423843D02*
X228600Y57150D01*
X228600Y430995D02*
X228600Y432705D01*
X228600Y452510D02*
X228600Y495300D01*
X254000Y419216D02*
X254000Y57150D01*
X254000Y457590D02*
X254000Y469154D01*
X254000Y475726D02*
X254000Y495300D01*
X279400Y418850D02*
X279400Y57150D01*
X279400Y457450D02*
X279400Y495300D01*
X304800Y418850D02*
X304800Y57150D01*
X304800Y457450D02*
X304800Y495300D01*
X330200Y351790D02*
X330200Y57150D01*
X330200Y360680D02*
X330200Y360755D01*
X330200Y385401D02*
X330200Y412120D01*
X330200Y464180D02*
X330200Y495300D01*
X355600Y435480D02*
X355600Y57150D01*
X355600Y445640D02*
X355600Y447290D01*
X355600Y457450D02*
X355600Y495300D01*
X381000Y337326D02*
X381000Y57150D01*
X381000Y346216D02*
X381000Y348040D01*
X381000Y363914D02*
X381000Y367547D01*
X381000Y376436D02*
X381000Y435480D01*
X381000Y445640D02*
X381000Y447290D01*
X381000Y457450D02*
X381000Y495300D01*
X406400Y193416D02*
X406400Y57150D01*
X406400Y432430D02*
X406400Y447290D01*
X406400Y457450D02*
X406400Y495300D01*
X431800Y168016D02*
X431800Y57150D01*
X431800Y182384D02*
X431800Y447290D01*
X431800Y457450D02*
X431800Y495300D01*
X457200Y142616D02*
X457200Y57150D01*
X457200Y156984D02*
X457200Y447290D01*
X457200Y457450D02*
X457200Y495300D01*
X482600Y117216D02*
X482600Y57150D01*
X482600Y131584D02*
X482600Y447290D01*
X482600Y457450D02*
X482600Y495300D01*
X508000Y92840D02*
X508000Y57150D01*
X508000Y112460D02*
X508000Y123840D01*
X508000Y146460D02*
X508000Y447290D01*
X508000Y457450D02*
X508000Y495300D01*
X533400Y94313D02*
X533400Y57150D01*
X533400Y101380D02*
X533400Y103920D01*
X533400Y110987D02*
X533400Y147320D01*
X533400Y157480D02*
X533400Y168690D01*
X533400Y178270D02*
X533400Y180730D01*
X533400Y190310D02*
X533400Y401527D01*
X533400Y420933D02*
X533400Y429967D01*
X533400Y457450D02*
X533400Y495300D01*
X558800Y151566D02*
X558800Y57150D01*
X558800Y190310D02*
X558800Y401527D01*
X558800Y420933D02*
X558800Y429967D01*
X558800Y449373D02*
X558800Y495300D01*
X584200Y146050D02*
X584200Y57150D01*
X584200Y154940D02*
X584200Y172720D01*
X584200Y182880D02*
X584200Y320040D01*
X584200Y353651D02*
X584200Y400826D01*
X584200Y409716D02*
X584200Y411540D01*
X584200Y427414D02*
X584200Y429911D01*
X584200Y444523D02*
X584200Y495300D01*
X609600Y129540D02*
X609600Y57150D01*
X609600Y138430D02*
X609600Y172720D01*
X609600Y241930D02*
X609600Y495300D01*
X635000Y267476D02*
X635000Y57150D01*
X635000Y276366D02*
X635000Y278190D01*
X635000Y287080D02*
X635000Y293110D01*
X635000Y311173D02*
X635000Y495300D01*
X508000Y139700D02*
X512550Y135150D01*
X514350Y135150D01*
X555600Y155550D02*
X555600Y179500D01*
X555600Y155550D02*
X552450Y152400D01*
X514350Y152400D01*
X514350Y135150D01*
X557300Y177800D02*
X555600Y179500D01*
X557300Y177800D02*
X609600Y177800D01*
X609600Y196850D01*
X609600Y201680D01*
X609600Y230120D01*
X546100Y237150D02*
X546100Y201500D01*
X546100Y258150D02*
X546100Y327050D01*
X309967Y443850D02*
X248550Y443850D01*
X309967Y443850D02*
X313257Y440560D01*
X386460Y440560D02*
X406400Y420620D01*
X386460Y440560D02*
X313257Y440560D01*
X406400Y392180D02*
X406400Y200600D01*
X504350Y102650D01*
X406400Y392180D02*
X406400Y420620D01*
X256470Y423930D02*
X248550Y431850D01*
X256470Y423930D02*
X323850Y423930D01*
M02*
