G04 EAGLE Gerber RS-274X export*
G75*
%MOMM*%
%FSLAX34Y34*%
%LPD*%
%IN*%
%IPPOS*%
%AMOC8*
5,1,8,0,0,1.08239X$1,22.5*%
G01*
%ADD10C,0.254000*%


D10*
X0Y25400D02*
X97Y23186D01*
X386Y20989D01*
X865Y18826D01*
X1532Y16713D01*
X2380Y14666D01*
X3403Y12700D01*
X4594Y10831D01*
X5942Y9073D01*
X7440Y7440D01*
X9073Y5942D01*
X10831Y4594D01*
X12700Y3403D01*
X14666Y2380D01*
X16713Y1532D01*
X18826Y865D01*
X20989Y386D01*
X23186Y97D01*
X25400Y0D01*
X806600Y0D01*
X808814Y97D01*
X811011Y386D01*
X813174Y865D01*
X815287Y1532D01*
X817335Y2380D01*
X819300Y3403D01*
X821169Y4594D01*
X822927Y5942D01*
X824561Y7440D01*
X826058Y9073D01*
X827406Y10831D01*
X828597Y12700D01*
X829620Y14666D01*
X830468Y16713D01*
X831135Y18826D01*
X831614Y20989D01*
X831903Y23186D01*
X832000Y25400D01*
X832000Y558000D01*
X831924Y559743D01*
X831696Y561473D01*
X831319Y563176D01*
X830794Y564840D01*
X830126Y566452D01*
X829321Y568000D01*
X828383Y569472D01*
X827321Y570856D01*
X826142Y572142D01*
X824856Y573321D01*
X823472Y574383D01*
X822000Y575321D01*
X820452Y576126D01*
X818840Y576794D01*
X817176Y577319D01*
X815473Y577696D01*
X813743Y577924D01*
X812000Y578000D01*
X25400Y578000D01*
X23186Y577903D01*
X20989Y577614D01*
X18826Y577135D01*
X16713Y576468D01*
X14666Y575620D01*
X12700Y574597D01*
X10831Y573406D01*
X9073Y572058D01*
X7440Y570561D01*
X5942Y568927D01*
X4594Y567169D01*
X3403Y565300D01*
X2380Y563335D01*
X1532Y561287D01*
X865Y559174D01*
X386Y557011D01*
X97Y554814D01*
X0Y552600D01*
X0Y25400D01*
X40334Y347450D02*
X39906Y347518D01*
X39494Y347651D01*
X39109Y347848D01*
X38759Y348102D01*
X38452Y348409D01*
X38198Y348759D01*
X38001Y349144D01*
X37868Y349556D01*
X37800Y349984D01*
X37800Y350416D01*
X37868Y350844D01*
X38001Y351256D01*
X38198Y351641D01*
X38452Y351992D01*
X38759Y352298D01*
X39109Y352552D01*
X39494Y352749D01*
X39906Y352882D01*
X40334Y352950D01*
X40766Y352950D01*
X41194Y352882D01*
X41606Y352749D01*
X41991Y352552D01*
X42342Y352298D01*
X42648Y351992D01*
X42902Y351641D01*
X43099Y351256D01*
X43232Y350844D01*
X43300Y350416D01*
X43300Y349984D01*
X43232Y349556D01*
X43099Y349144D01*
X42902Y348759D01*
X42648Y348409D01*
X42342Y348102D01*
X41991Y347848D01*
X41606Y347651D01*
X41194Y347518D01*
X40766Y347450D01*
X40334Y347450D01*
X40334Y307450D02*
X39906Y307518D01*
X39494Y307651D01*
X39109Y307848D01*
X38759Y308102D01*
X38452Y308409D01*
X38198Y308759D01*
X38001Y309144D01*
X37868Y309556D01*
X37800Y309984D01*
X37800Y310416D01*
X37868Y310844D01*
X38001Y311256D01*
X38198Y311641D01*
X38452Y311992D01*
X38759Y312298D01*
X39109Y312552D01*
X39494Y312749D01*
X39906Y312882D01*
X40334Y312950D01*
X40766Y312950D01*
X41194Y312882D01*
X41606Y312749D01*
X41991Y312552D01*
X42342Y312298D01*
X42648Y311992D01*
X42902Y311641D01*
X43099Y311256D01*
X43232Y310844D01*
X43300Y310416D01*
X43300Y309984D01*
X43232Y309556D01*
X43099Y309144D01*
X42902Y308759D01*
X42648Y308409D01*
X42342Y308102D01*
X41991Y307848D01*
X41606Y307651D01*
X41194Y307518D01*
X40766Y307450D01*
X40334Y307450D01*
M02*
